
{
  "asset": {
    "generator": "Khronos glTF Blender I/O v1.5.17",
    "version": "2.0"
  },
  "scene": 0,
  "scenes": [
    {
      "name": "Scene",
      "nodes": [
        0
      ]
    }
  ],
  "nodes": [
    {
      "mesh": 0,
      "name": "Glasses"
    }
  ],
  "meshes": [
    {
      "name": "Glasses",
      "primitives": [
        {
          "attributes": {
            "POSITION": 0,
            "NORMAL": 1
          },
          "indices": 2,
          "material": 0
        }
      ]
    }
  ],
  "materials": [
    {
      "doubleSided": true,
      "name": "Glass",
      "pbrMetallicRoughness": {
        "baseColorFactor": [
          0.10506853461265564,
          0.10506853461265564,
          0.10506853461265564,
          1
        ],
        "metallicFactor": 0.8545454740524292,
        "roughnessFactor": 0.20000000298023224
      }
    }
  ],
  "accessors": [
    {
      "bufferView": 0,
      "componentType": 5126,
      "count": 240,
      "max": [
        1.2000000476837158,
        0.4000000059604645,
        0.10000000149011612
      ],
      "min": [
        -1.2000000476837158,
        -0.4000000059604645,
        -0.10000000149011612
      ],
      "type": "VEC3"
    },
    {
      "bufferView": 1,
      "componentType": 5126,
      "count": 240,
      "type": "VEC3"
    },
    {
      "bufferView": 2,
      "componentType": 5123,
      "count": 372,
      "type": "SCALAR"
    }
  ],
  "bufferViews": [
    {
      "buffer": 0,
      "byteLength": 2880,
      "byteOffset": 0
    },
    {
      "buffer": 0,
      "byteLength": 2880,
      "byteOffset": 2880
    },
    {
      "buffer": 0,
      "byteLength": 744,
      "byteOffset": 5760
    }
  ],
  "buffers": [
    {
      "byteLength": 6504,
      "uri": "data:application/octet-stream;base64,"
    }
  ]
}
